<svg xmlns="http://www.w3.org/2000/svg" viewBox="0 0 717.02 232.67"><defs><style>.cls-1{fill:#007bff;}.cls-2{fill:#ffc10a;}</style></defs><title>Asset 1</title><g id="Layer_2" data-name="Layer 2"><g id="Layer_1-2" data-name="Layer 1"><path class="cls-1" d="M76.32,99.7c0,.54-.49.81-1.46.81q-5.51,0-16.67-1t-16.73-1q-7,0-8.21.51c-1.8.83-2.71,3.17-2.71,7,0,4.64,1.18,7.28,3.52,7.91a19.57,19.57,0,0,0,4.47.37q5.05,0,15.12-.55t15.13-.55q2.41,0,2.41,12.89,0,11.21-.8,13a1.94,1.94,0,0,1-2,1.31c.63,0-.9-.17-4.61-.51q-7.84-.74-23.73-.73c-3.42,0-5.35,0-5.79.07q-3.74.58-3.74,3.15,0,10.41.88,23.95.73,12.24.74,10.91c0,1.27-1.54,2-4.62,2.2q1.25-.08-6.52-.07-13.69,0-17.65-.95c-1.42-.34-2.12-1.1-2.12-2.27q0-8.13.55-24.43t.55-24.43q0-9.66-.88-24.31Q.15,80.52.08,78.83L0,78c0-1.22.69-1.83,2.2-1.83q5.41,0,16.37.22T35,76.56q5.87,0,17.62-.88t17.61-.88q3.66,0,4.1,3c0,2.1.1,5.24.3,9.44.09,1.08.41,3.15,1,6.23A37.15,37.15,0,0,1,76.32,99.7Z"/><path class="cls-1" d="M181.57,176.76c0,.87-.61,1.49-1.83,1.83q-2.2.58-13.62.58-10.49,0-13.48-.58a4,4,0,0,1-3.15-3.3Q147,164.75,145.61,164q-1.17-.51-19.63-.51-12.45,0-13.26.66-1.25,1.17-2.78,7.83-1.39,6.09-3.37,6.6-2.49.58-16.7.58-11.2,0-11.21-2.12,0-1.91,16.56-46.8,17.94-48.57,19.48-53.4c.59-1.85,1.27-2.78,2-2.78q2,0,6.12.37c2.75.24,4.82.36,6.19.36s3.25-.08,5.82-.25,4.48-.26,5.75-.26c.92,0,1.78.81,2.56,2.42q3.59,7.68,20.95,52.73Q181.57,174.78,181.57,176.76ZM129.64,110q-1.53,3.23-5.2,14-4,11.43-4,13.4c0,.88,1.46,1.37,4.39,1.47q2.27.15,7.47.15c3.22,0,5-.39,5.35-1.18a3,3,0,0,0,.14-1q0-2.42-3.37-13.33Q131.19,113,129.64,110Z"/><path class="cls-1" d="M322.49,98.24c0,1-.54,1.46-1.61,1.46q-2.79,0-22.05-1.09-.43,18.52-.44,25.85,0,8.64.7,26t.69,26c0,.93-.22,1.52-.66,1.76a8.67,8.67,0,0,1-2.05.37,105.62,105.62,0,0,1-12.89.58,101.1,101.1,0,0,1-13.25-.58,2.16,2.16,0,0,1-2.06-2.27q0-8.64.74-25.93t.73-25.93q0-5.71-.59-25.49-14.64,1.47-23.36,1.47c-.78,0-1.17-.25-1.17-.74a43.31,43.31,0,0,1,1-5.64c.78-3.41,1.22-5.49,1.32-6.22.15-2.3.32-4.59.51-6.89q.51-5.49,1.76-5.49l1,.07q11.86,1.55,35.08,1.54,6.58,0,24.32-1.39l9.59-.73a4.1,4.1,0,0,1,1.69.18,2.77,2.77,0,0,1,.29,1.43q0,2-.15,5.49c-.1,2.59-.14,4.42-.14,5.5a43.31,43.31,0,0,0,.47,5.38A43.69,43.69,0,0,1,322.49,98.24Z"/><path class="cls-1" d="M428.32,78.1q0,8.34-.69,25.08t-.7,25.16v48.27c0,1.32-.71,2-2.12,2-1.17,0-2.95,0-5.31.14s-4.14.15-5.31.15-3.18-.1-5.72-.29-4.44-.3-5.71-.3c-.88,0-1.93-.8-3.15-2.41q-5.26-7.11-23.73-31.5-5.06-6.81-15.38-20.07a3.21,3.21,0,0,0-1.1-.88,2.05,2.05,0,0,0-.58,1.62q0,8.49.47,25.48t.48,25.49c0,1.71-.66,2.57-2,2.57H332.45c-1.42,0-2.13-.76-2.13-2.27q0-7.92.77-23.88t.77-23.95q0-8.43-.69-25.2t-.7-25.12c0-1.07.95-1.61,2.86-1.61,2.83,0,6.32-.19,10.47-.59q1.47-.14,5.79-1a34.61,34.61,0,0,1,5.78-.66c.59,0,1.49.83,2.71,2.49l27.32,37.43q3.66,5.06,11.06,14.79,1.83,2.28,3.15,2.28c.64,0,.95-1.91.95-5.72q0-7.68-.84-23.14t-.84-23.22c0-1.81.51-2.71,1.54-2.71q4.4,0,13.25-.37t13.26-.36C427.86,75.83,428.32,76.59,428.32,78.1Z"/><path class="cls-1" d="M517,155.81a95.46,95.46,0,0,1-1.25,11.57q-1.32,9.15-2.34,10.91a2.72,2.72,0,0,1-2.42,1.39,18.75,18.75,0,0,1-2.2-.21q-5.34-.74-31.2-.74-5.64,0-16.77-.07t-16.7-.07c-1.61,0-2.42-.71-2.42-2.13q0-8.21.92-24.64t.91-24.65q0-8.36-.87-31.13-.23-5.85-.81-17.5l-.07-1q-.15-1.68,1.83-1.68,5.42,0,16.29.29t16.3.29c3.56,0,8.94-.09,16.11-.29s12.55-.29,16.12-.29c2.53,0,4,1,4.39,2.85.25,1.13.62,4.53,1.14,10.22s.77,9.15.77,10.36c0,1-.49,1.54-1.47,1.54-.29,0-.8,0-1.54-.07q-19.49-1.61-35-1.61c-2.59,0-4.17.61-4.76,1.83a23.42,23.42,0,0,0-.36,5.64c0,3.32.48,5.52,1.46,6.59q1.25,1.39,4.76,1.39c.49,0,1.44,0,2.86-.11s2.59-.11,3.51-.11q9.24,0,18.68-.51l4-.37a37,37,0,0,1,4-.29c1.18,0,1.76.56,1.76,1.69q0-1.55-1.32,11.2-.59,5.87-.58,11.72,0,1.47-2.13,1.47l-6.59-.74q-4.17-.44-19-.44h-7.77q-3,0-3.51,1.47c-.05.24-.07,1.76-.07,4.54q0,5.57.73,7.18,1.25,2.78,9.37,3.29h10.7q3.87,0,11.53-.69c5.1-.47,8.93-.7,11.46-.7Q516.95,153.17,517,155.81Z"/><path class="cls-1" d="M603,98.24c0,1-.54,1.46-1.62,1.46q-2.77,0-22-1.09-.43,18.52-.44,25.85,0,8.64.69,26t.7,26c0,.93-.22,1.52-.66,1.76a8.8,8.8,0,0,1-2,.37,105.74,105.74,0,0,1-12.89.58,101.39,101.39,0,0,1-13.26-.58,2.16,2.16,0,0,1-2.05-2.27q0-8.64.73-25.93t.74-25.93q0-5.71-.59-25.49-14.65,1.47-23.36,1.47c-.78,0-1.18-.25-1.18-.74a44.22,44.22,0,0,1,1-5.64c.78-3.41,1.22-5.49,1.32-6.22.15-2.3.32-4.59.51-6.89q.51-5.49,1.76-5.49l1,.07q11.86,1.55,35.09,1.54,6.59,0,24.31-1.39l9.6-.73a4,4,0,0,1,1.68.18c.15.12.25.6.3,1.43q0,2-.15,5.49c-.1,2.59-.15,4.42-.15,5.5a43.76,43.76,0,0,0,.48,5.38A43.69,43.69,0,0,1,603,98.24Z"/><path class="cls-2" d="M652.49,135.68c-9.71-10.57-23.27-16.52-36.29-15.91-3.71.17-6.11,3.43-5.35,7.26a8.31,8.31,0,0,0,2,4,7.89,7.89,0,0,0,6.05,2.66c8.68-.41,17.73,3.56,24.2,10.6s9.66,16.4,8.52,25a8.26,8.26,0,0,0,5.91,8.62c3.76,1.08,7.2-1,7.69-4.71C667,160.27,662.2,146.25,652.49,135.68Z"/><path class="cls-2" d="M670,119.58c-13.87-15.1-32.66-24.49-51.55-25.77a5.73,5.73,0,0,0-6.22,6.48,8.14,8.14,0,0,0,2.16,4.75,8,8,0,0,0,5.29,2.65c15,1,29.95,8.47,41,20.48s17.2,27.51,16.93,42.56a8.34,8.34,0,0,0,6.74,8.05,5.73,5.73,0,0,0,7-5.65C691.65,154.2,683.89,134.68,670,119.58Z"/><path class="cls-2" d="M717,173.51c-.67-25.19-11.13-50.06-29.47-70S645.32,71,620.27,68.17a5.72,5.72,0,0,0-6.54,6.15A8.35,8.35,0,0,0,620.89,82c21.33,2.39,41.69,13.07,57.31,30.08s24.54,38.19,25.1,59.65a8.34,8.34,0,0,0,7,7.79A5.72,5.72,0,0,0,717,173.51Z"/><path d="M288.31,109.06a1.5,1.5,0,0,0,0-3,1.5,1.5,0,0,0,0,3Z"/><polygon class="cls-2" points="281.85 77.38 269.2 97.91 186.11 232.67 221 115.46 201.8 121.18 201.76 121.19 195.51 123.05 195.5 123.06 170.12 130.61 232.02 21.88 232.02 21.87 244.48 0 238.19 83.25 226.84 90.49 226.84 90.5 206.83 103.28 226.39 96.53 281.85 77.38"/></g></g></svg>